<svg width="52" height="53" viewBox="0 0 52 53" fill="none" xmlns="http://www.w3.org/2000/svg">
<g clip-path="url(#clip0_752_1062)">
<g clip-path="url(#clip1_752_1062)">
<path d="M11.3284 42.9192L8.79776 11.2856C8.70466 10.1219 9.62394 9.1261 10.7914 9.1261H40.2086C41.3761 9.1261 42.2953 10.1219 42.2022 11.2856L39.6716 42.9192C39.6058 43.7411 39.0424 44.4384 38.2526 44.6753L26.0747 48.3287C25.6998 48.4412 25.3002 48.4412 24.9253 48.3287L12.7474 44.6753C11.9576 44.4384 11.3942 43.7411 11.3284 42.9192Z" fill="#1E78FE"/>
<path d="M39.5625 11.6573H25.5V46.1105L36.75 42.5949L39.5625 11.6573Z" fill="#1E78FE"/>
<path d="M30.4219 29.2355H16.3594L15.6562 24.3136L26.9062 20.798H15.6562L14.9531 16.5792H36.75L36.0469 21.5011L26.9062 25.0167H35.3438L33.9375 38.3761L25.5 41.1886L17.0625 38.3761L16.3594 31.3449H20.5781L21.2813 34.8605L25.5 36.2667L29.7188 34.8605L30.4219 29.2355Z" fill="white"/>
</g>
</g>
<defs>
<clipPath id="clip0_752_1062">
<rect width="52" height="52" fill="white" transform="translate(0 0.626099)"/>
</clipPath>
<clipPath id="clip1_752_1062">
<rect width="52" height="52" fill="white" transform="translate(0 0.626099)"/>
</clipPath>
</defs>
</svg>
