<svg width="52" height="53" viewBox="0 0 52 53" fill="none" xmlns="http://www.w3.org/2000/svg">
<g clip-path="url(#clip0_752_1050)">
<g clip-path="url(#clip1_752_1050)">
<path d="M11.3284 42.6379L8.79776 11.0043C8.70466 9.84061 9.62394 8.84485 10.7914 8.84485H40.2086C41.3761 8.84485 42.2953 9.84061 42.2022 11.0043L39.6716 42.6379C39.6058 43.4598 39.0424 44.1571 38.2526 44.3941L26.0747 48.0474C25.6998 48.1599 25.3002 48.1599 24.9253 48.0474L12.7474 44.3941C11.9576 44.1571 11.3942 43.4598 11.3284 42.6379Z" fill="#E56825"/>
<path d="M39.5625 11.6573H25.5V46.1105L36.75 42.5949L39.5625 11.6573Z" fill="#E54B25"/>
<path d="M16.3594 29.2355L14.9531 15.8761H36.75L36.0469 20.0949H19.1719L19.875 25.0167H35.3438L33.9375 38.3761L25.5 41.1886L17.0625 38.3761L16.3594 31.3449H20.5781L21.2812 34.8605L25.5 36.2667L29.7188 34.8605L30.4219 29.2355H16.3594Z" fill="white"/>
</g>
</g>
<defs>
<clipPath id="clip0_752_1050">
<rect width="52" height="52" fill="white" transform="translate(0 0.626099)"/>
</clipPath>
<clipPath id="clip1_752_1050">
<rect width="52" height="52" fill="white" transform="translate(0 0.626099)"/>
</clipPath>
</defs>
</svg>
