<svg width="52" height="53" viewBox="0 0 52 53" fill="none" xmlns="http://www.w3.org/2000/svg">
<g clip-path="url(#clip0_752_1074)">
<g clip-path="url(#clip1_752_1074)">
<path d="M45.25 7.3761H6.75V45.8761H45.25V7.3761Z" fill="#FFCA28"/>
<path d="M30.125 39.3965L32.9596 37.5209C33.1817 38.2188 34.5885 39.8763 36.3654 39.8763C38.1423 39.8763 38.9673 38.9058 38.9673 38.2624C38.9673 36.509 37.1529 35.8908 36.2814 35.5939C36.1393 35.5455 36.0223 35.5056 35.9423 35.4708C35.9013 35.4529 35.8392 35.4292 35.7596 35.3988C34.7903 35.0285 31.2144 33.6623 31.2144 29.7021C31.2144 25.3401 35.424 24.8385 36.376 24.8385C36.9988 24.8385 39.9933 24.9148 41.4846 27.7174L38.7346 29.6367C38.1317 28.4153 37.1301 28.0118 36.5135 28.0118C34.9904 28.0118 34.6731 29.1284 34.6731 29.6367C34.6731 31.0628 36.3278 31.702 37.7251 32.2418C38.0906 32.383 38.4386 32.5174 38.7346 32.6573C40.2577 33.377 42.5 34.5547 42.5 38.2624C42.5 40.1195 40.9424 43.126 37.0212 43.126C31.7538 43.126 30.3577 39.9636 30.125 39.3965Z" fill="#3E3E3E"/>
<path d="M16.375 39.769L19.3294 37.8943C19.5609 38.5919 20.4605 39.878 21.7657 39.878C23.071 39.878 23.739 38.5374 23.739 37.8943V25.251H27.3725V37.8943C27.4313 39.6382 26.4641 43.126 22.1957 43.126C18.2711 43.126 16.6396 40.7935 16.375 39.769Z" fill="#3E3E3E"/>
</g>
</g>
<defs>
<clipPath id="clip0_752_1074">
<rect width="52" height="52" fill="white" transform="translate(0 0.626099)"/>
</clipPath>
<clipPath id="clip1_752_1074">
<rect width="52" height="52" fill="white" transform="translate(0 0.626099)"/>
</clipPath>
</defs>
</svg>
