<svg width="52" height="29" viewBox="0 0 52 29" fill="none" xmlns="http://www.w3.org/2000/svg">
<g clip-path="url(#clip0_752_1180)">
<mask id="mask0_752_1180" style="mask-type:luminance" maskUnits="userSpaceOnUse" x="0" y="1" width="52" height="27">
<path d="M0.731201 14.6084C0.731201 21.9278 12.0447 27.8616 26 27.8616C39.9553 27.8616 51.2689 21.9278 51.2689 14.6084C51.2689 7.28897 39.9553 1.35514 26 1.35514C12.0447 1.35514 0.731201 7.28897 0.731201 14.6084Z" fill="white"/>
</mask>
<g mask="url(#mask0_752_1180)">
<path d="M0.731201 14.6084C0.731201 21.9278 12.0447 27.8616 26 27.8616C39.9553 27.8616 51.2689 21.9278 51.2689 14.6084C51.2689 7.28897 39.9553 1.35514 26 1.35514C12.0447 1.35514 0.731201 7.28897 0.731201 14.6084Z" fill="url(#paint0_radial_752_1180)"/>
</g>
<mask id="mask1_752_1180" style="mask-type:luminance" maskUnits="userSpaceOnUse" x="-1" y="-1" width="54" height="31">
<path d="M-0.321777 -0.153969H52.3216V29.3707H-0.321777V-0.153969Z" fill="white"/>
</mask>
<g mask="url(#mask1_752_1180)">
<path d="M26 26.8776C39.4102 26.8776 50.2817 21.3844 50.2817 14.6083C50.2817 7.83231 39.4102 2.33908 26 2.33908C12.5897 2.33908 1.71826 7.83231 1.71826 14.6083C1.71826 21.3844 12.5897 26.8776 26 26.8776Z" fill="#777BB3"/>
</g>
<mask id="mask2_752_1180" style="mask-type:luminance" maskUnits="userSpaceOnUse" x="-1" y="-1" width="54" height="31">
<path d="M-0.321777 -0.153969H52.3216V29.3707H-0.321777V-0.153969Z" fill="white"/>
</mask>
<g mask="url(#mask2_752_1180)">
<path d="M14.4598 16.1296C15.5625 16.1296 16.3857 15.9268 16.9066 15.5272C17.4219 15.1316 17.7778 14.4462 17.9643 13.4902C18.1382 12.5966 18.0719 11.9727 17.7674 11.636C17.456 11.2921 16.7828 11.1177 15.7665 11.1177H14.0043L13.0274 16.1296H14.4598ZM8.69623 22.3033C8.61443 22.3033 8.53674 22.2669 8.48474 22.2038C8.43265 22.1409 8.41153 22.0579 8.42716 21.9778L11.0162 8.6962C11.0412 8.5678 11.1541 8.47503 11.2853 8.47503H16.8654C18.619 8.47503 19.9243 8.9498 20.7448 9.8863C21.5696 10.8277 21.8243 12.1437 21.5018 13.7975C21.3706 14.4713 21.1448 15.097 20.8309 15.6573C20.5166 16.2182 20.1012 16.7371 19.596 17.2C18.9914 17.7643 18.307 18.1734 17.5638 18.4142C16.8324 18.6518 15.893 18.7722 14.7719 18.7722H12.5124L11.8672 22.0821C11.8421 22.2106 11.7293 22.3033 11.5981 22.3033H8.69623Z" fill="black"/>
<path d="M14.2304 11.391H15.7666C16.9932 11.391 17.4192 11.6594 17.564 11.8193C17.8042 12.0848 17.8495 12.6447 17.6952 13.4383C17.5217 14.3268 17.2002 14.9567 16.7394 15.3105C16.2676 15.6726 15.5006 15.8561 14.4599 15.8561H13.36L14.2304 11.391ZM16.8654 8.2016H11.2853C11.0228 8.2016 10.7971 8.38713 10.7471 8.64401L8.15804 21.9257C8.12678 22.0859 8.169 22.2517 8.2731 22.3777C8.37729 22.5038 8.53248 22.5767 8.69626 22.5767H11.598C11.8606 22.5767 12.0863 22.3911 12.1364 22.1342L12.7385 19.0455H14.7719C15.9218 19.0455 16.8899 18.9205 17.6489 18.674C18.4295 18.4211 19.1477 17.9924 19.7833 17.3997C20.309 16.9175 20.7421 16.3762 21.0702 15.7907C21.3984 15.2051 21.6342 14.552 21.771 13.8496C22.1105 12.1087 21.8347 10.7147 20.9513 9.70644C20.0764 8.70789 18.7017 8.2016 16.8654 8.2016ZM12.6948 16.4029H14.4599C15.6298 16.4029 16.5013 16.1832 17.0739 15.7437C17.6465 15.3041 18.0328 14.5705 18.2335 13.5424C18.4255 12.5553 18.338 11.8587 17.9711 11.453C17.6037 11.0472 16.869 10.8442 15.7666 10.8442H13.7784L12.6948 16.4029ZM16.8654 8.74835C18.544 8.74835 19.7686 9.18757 20.5384 10.0661C21.308 10.9447 21.5398 12.1709 21.2327 13.7453C21.1063 14.3939 20.8925 14.9868 20.5915 15.524C20.2902 16.0615 19.8968 16.5531 19.4105 16.9988C18.8311 17.5394 18.1874 17.9247 17.4791 18.1542C16.7708 18.3842 15.8686 18.4988 14.7719 18.4988H12.2863L11.598 22.0299H8.69626L11.2853 8.74835H16.8654Z" fill="white"/>
<path d="M28.1553 18.7722C28.0734 18.7722 27.9958 18.7358 27.9438 18.6727C27.8916 18.6097 27.8705 18.5269 27.8861 18.4467L29.0314 12.5701C29.1403 12.0112 29.1135 11.6101 28.9558 11.4406C28.8593 11.337 28.5694 11.1632 27.7122 11.1632H25.6374L24.1974 18.551C24.1724 18.6795 24.0595 18.7722 23.9283 18.7722H21.0493C20.9675 18.7722 20.8899 18.7358 20.8378 18.6727C20.7857 18.6097 20.7646 18.5268 20.7802 18.4467L23.3692 5.16507C23.3943 5.03667 23.5071 4.94391 23.6384 4.94391H26.5173C26.5992 4.94391 26.6768 4.98036 26.7289 5.04332C26.781 5.10638 26.8021 5.18922 26.7865 5.26941L26.1617 8.47502H28.3937C30.0941 8.47502 31.2472 8.77392 31.9187 9.38883C32.6033 10.0161 32.8169 11.0192 32.5537 12.3704L31.3491 18.551C31.324 18.6795 31.2112 18.7722 31.0799 18.7722H28.1553Z" fill="black"/>
<path d="M26.5173 4.67047H23.6384C23.3758 4.67047 23.1502 4.856 23.1001 5.11288L20.5111 18.3945C20.4798 18.5548 20.522 18.7206 20.6262 18.8466C20.7304 18.9726 20.8856 19.0455 21.0494 19.0455H23.9283C24.1908 19.0455 24.4165 18.86 24.4666 18.6031L25.8634 11.4365H27.7122C28.568 11.4365 28.7476 11.6188 28.7548 11.6266C28.8067 11.6823 28.875 11.9402 28.7623 12.5179L27.617 18.3945C27.5857 18.5548 27.628 18.7206 27.7322 18.8466C27.8363 18.9726 27.9915 19.0455 28.1553 19.0455H31.0799C31.3424 19.0455 31.5682 18.86 31.6183 18.6031L32.8227 12.4225C33.1054 10.9717 32.8636 9.8834 32.1043 9.18756C31.3797 8.52408 30.166 8.20158 28.3938 8.20158H26.4942L27.0557 5.32156C27.0868 5.16127 27.0447 4.99542 26.9405 4.86949C26.8363 4.74346 26.6811 4.67047 26.5173 4.67047ZM26.5173 5.21722L25.829 8.74834H28.3938C30.0075 8.74834 31.1206 9.02919 31.7332 9.59016C32.3458 10.1515 32.5294 11.061 32.2845 12.3183L31.0799 18.4988H28.1553L29.3006 12.6223C29.4309 11.9538 29.383 11.4978 29.1567 11.2547C28.9303 11.0115 28.4488 10.8898 27.7122 10.8898H25.4113L23.9283 18.4988H21.0494L23.6384 5.21722H26.5173Z" fill="white"/>
<path d="M37.1088 16.1296C38.2114 16.1296 39.0346 15.9268 39.5555 15.5272C40.0708 15.1317 40.4267 14.4463 40.6133 13.4902C40.7872 12.5966 40.721 11.9727 40.4163 11.636C40.105 11.2921 39.4317 11.1177 38.4154 11.1177H36.6533L35.6763 16.1296H37.1088ZM31.3452 22.3033C31.2634 22.3033 31.1858 22.2669 31.1337 22.2038C31.0817 22.1409 31.0604 22.0579 31.0761 21.9778L33.6651 8.6962C33.6902 8.5678 33.803 8.47503 33.9344 8.47503H39.5143C41.268 8.47503 42.5733 8.9498 43.3938 9.8863C44.2186 10.8276 44.4733 12.1436 44.1508 13.7975C44.0194 14.4713 43.7937 15.097 43.4798 15.6573C43.1655 16.2182 42.7501 16.7371 42.245 17.2C41.6403 17.7643 40.9559 18.1734 40.2127 18.4142C39.4813 18.6518 38.5419 18.7722 37.4208 18.7722H35.1612L34.5163 22.0821C34.4911 22.2106 34.3783 22.3033 34.247 22.3033H31.3452Z" fill="black"/>
<path d="M36.8795 11.391H38.4156C39.6422 11.391 40.0683 11.6594 40.2131 11.8193C40.4534 12.0848 40.4987 12.6447 40.3442 13.4382C40.1708 14.3268 39.8492 14.9567 39.3884 15.3105C38.9167 15.6726 38.1497 15.8561 37.109 15.8561H36.0092L36.8795 11.391ZM39.5145 8.2016H33.9345C33.672 8.2016 33.4463 8.38713 33.3962 8.64401L30.8072 21.9257C30.7759 22.0859 30.8182 22.2517 30.9223 22.3777C31.0265 22.5038 31.1816 22.5767 31.3454 22.5767H34.2472C34.5097 22.5767 34.7354 22.3911 34.7855 22.1342L35.3875 19.0455H37.421C38.5709 19.0455 39.539 18.9205 40.298 18.674C41.0786 18.4211 41.797 17.9923 42.4326 17.3995C42.9583 16.9174 43.3912 16.3762 43.7193 15.7907C44.0475 15.2051 44.2833 14.552 44.4201 13.8496C44.7596 12.1086 44.4838 10.7146 43.6004 9.70635C42.7255 8.70789 41.3509 8.2016 39.5145 8.2016ZM35.3439 16.4029H37.109C38.2789 16.4029 39.1504 16.1832 39.7229 15.7437C40.2957 15.3041 40.6819 14.5705 40.8826 13.5424C41.0747 12.5553 40.9872 11.8587 40.6202 11.453C40.2528 11.0472 39.518 10.8442 38.4156 10.8442H36.4274L35.3439 16.4029ZM39.5145 8.74835C41.1931 8.74835 42.4177 9.18757 43.1874 10.0661C43.9572 10.9447 44.1888 12.1709 43.8818 13.7453C43.7554 14.3939 43.5416 14.9868 43.2406 15.524C42.9393 16.0615 42.5458 16.5531 42.0596 16.9988C41.4802 17.5394 40.8365 17.9247 40.1282 18.1542C39.4199 18.3842 38.5177 18.4988 37.421 18.4988H34.9354L34.2472 22.0299H31.3454L33.9345 8.74835H39.5145Z" fill="white"/>
</g>
</g>
<defs>
<radialGradient id="paint0_radial_752_1180" cx="0" cy="0" r="1" gradientUnits="userSpaceOnUse" gradientTransform="translate(15.9027 6.01456) scale(33.1816 33.0839)">
<stop stop-color="#AEB2D5"/>
<stop offset="0.3" stop-color="#AEB2D5"/>
<stop offset="0.75" stop-color="#484C89"/>
<stop offset="1" stop-color="#484C89"/>
</radialGradient>
<clipPath id="clip0_752_1180">
<rect width="52" height="27.9644" fill="white" transform="translate(0 0.626099)"/>
</clipPath>
</defs>
</svg>
