<svg width="54" height="51" viewBox="0 0 54 51" fill="none" xmlns="http://www.w3.org/2000/svg">
<path d="M31.3739 25.5732C31.3716 25.6511 31.3675 25.7292 31.3614 25.807C31.3554 25.8849 31.3477 25.9627 31.3379 26.0403C31.3283 26.118 31.3166 26.1954 31.3033 26.2725C31.2899 26.3497 31.2747 26.4266 31.2576 26.503C31.2404 26.5796 31.2216 26.6556 31.2009 26.7313C31.1803 26.8071 31.1578 26.8822 31.1336 26.9568C31.1093 27.0315 31.0833 27.1055 31.0556 27.1789C31.0278 27.2524 30.9984 27.3252 30.9673 27.3972C30.936 27.4693 30.9032 27.5406 30.8686 27.6111C30.8341 27.6817 30.7979 27.7513 30.76 27.82C30.7222 27.8889 30.6829 27.9568 30.6418 28.0236C30.6007 28.0906 30.5582 28.1565 30.514 28.2213C30.47 28.2862 30.4244 28.3499 30.3772 28.4125C30.3302 28.4752 30.2816 28.5367 30.2317 28.597C30.1817 28.6573 30.1303 28.7164 30.0777 28.7742C30.0249 28.832 29.971 28.8884 29.9155 28.9436C29.8602 28.9988 29.8036 29.0526 29.7458 29.1049C29.6879 29.1574 29.6289 29.2083 29.5688 29.2578C29.5086 29.3073 29.4473 29.3551 29.3849 29.4017C29.3224 29.4482 29.2591 29.4931 29.1946 29.5364C29.1302 29.5798 29.0647 29.6214 28.9983 29.6615C28.932 29.7017 28.8648 29.7401 28.7967 29.7768C28.7287 29.8137 28.6598 29.8487 28.5901 29.882C28.5204 29.9155 28.4501 29.9471 28.379 29.9768C28.3078 30.0068 28.2361 30.0348 28.1639 30.0611C28.0915 30.0874 28.0186 30.1118 27.9454 30.1345C27.8719 30.1572 27.7981 30.1779 27.7238 30.1969C27.6495 30.2158 27.5749 30.2329 27.5 30.2481C27.4249 30.2634 27.3497 30.2767 27.2742 30.2881C27.1988 30.2995 27.123 30.3092 27.0471 30.3167C26.9714 30.3244 26.8954 30.3302 26.8194 30.3339C26.7434 30.3378 26.6674 30.3397 26.5914 30.3397C26.5153 30.3397 26.4395 30.3378 26.3638 30.3339C26.2879 30.3302 26.2123 30.3244 26.1369 30.3167C26.0615 30.3092 25.9864 30.2995 25.9115 30.2881C25.8368 30.2767 25.7622 30.2634 25.6882 30.2481C25.6141 30.2329 25.5404 30.2158 25.4674 30.1969C25.3941 30.1779 25.3215 30.1572 25.2494 30.1345C25.1773 30.1118 25.106 30.0874 25.0352 30.0611C24.9643 30.0348 24.8943 30.0068 24.825 29.9768C24.7557 29.9471 24.6872 29.9155 24.6194 29.882C24.5517 29.8487 24.4849 29.8137 24.4189 29.7768C24.353 29.7401 24.288 29.7017 24.2239 29.6615C24.16 29.6214 24.097 29.5798 24.035 29.5364C23.9732 29.4931 23.9123 29.4482 23.8527 29.4017C23.793 29.3551 23.7345 29.3073 23.6772 29.2578C23.6199 29.2083 23.5639 29.1574 23.5091 29.1049C23.4543 29.0526 23.4009 28.9988 23.3487 28.9436C23.2966 28.8884 23.2458 28.832 23.1965 28.7742C23.1471 28.7164 23.0993 28.6573 23.0529 28.597C23.0064 28.5367 22.9614 28.4752 22.9179 28.4125C22.8745 28.3499 22.8327 28.2862 22.7923 28.2213C22.752 28.1565 22.7132 28.0906 22.6762 28.0236C22.639 27.9568 22.6036 27.8889 22.5698 27.82C22.5359 27.7513 22.5038 27.6817 22.4734 27.6111C22.443 27.5406 22.4141 27.4693 22.3872 27.3972C22.3603 27.3252 22.335 27.2524 22.3116 27.1789C22.288 27.1055 22.2664 27.0315 22.2466 26.9568C22.2267 26.8822 22.2085 26.8071 22.1924 26.7313C22.1761 26.6556 22.1616 26.5796 22.1491 26.503C22.1365 26.4266 22.1257 26.3497 22.1169 26.2725C22.108 26.1954 22.1009 26.118 22.0958 26.0403C22.0905 25.9627 22.0872 25.8849 22.0857 25.807C22.0844 25.7292 22.0848 25.6511 22.087 25.5732C22.0893 25.4951 22.0935 25.4171 22.0993 25.3392C22.1054 25.2613 22.1133 25.1836 22.123 25.106C22.1327 25.0284 22.1443 24.9509 22.1577 24.8737C22.171 24.7966 22.1863 24.7197 22.2034 24.6433C22.2203 24.5667 22.2393 24.4907 22.26 24.415C22.2805 24.3393 22.3031 24.2642 22.3273 24.1895C22.3515 24.1148 22.3774 24.0407 22.4053 23.9674C22.433 23.8939 22.4625 23.8211 22.4937 23.749C22.5248 23.677 22.5577 23.6057 22.5923 23.5352C22.6268 23.4647 22.6629 23.395 22.7009 23.3261C22.7387 23.2574 22.7781 23.1895 22.8191 23.1226C22.8601 23.0557 22.9027 22.9898 22.9468 22.9249C22.9909 22.8602 23.0365 22.7963 23.0836 22.7336C23.1307 22.6711 23.1793 22.6096 23.2293 22.5493C23.2792 22.489 23.3305 22.4299 23.3833 22.3721C23.4359 22.3143 23.49 22.2579 23.5453 22.2026C23.6007 22.1475 23.6573 22.0937 23.7152 22.0414C23.773 21.989 23.8319 21.938 23.8921 21.8885C23.9523 21.839 24.0136 21.791 24.0761 21.7447C24.1383 21.6981 24.2019 21.6532 24.2662 21.6098C24.3307 21.5666 24.3962 21.5248 24.4625 21.4848C24.5289 21.4446 24.5961 21.4063 24.6642 21.3694C24.7323 21.3326 24.8011 21.2975 24.8708 21.2642C24.9405 21.2308 25.0109 21.1993 25.0819 21.1693C25.1529 21.1396 25.2246 21.1116 25.297 21.0852C25.3694 21.059 25.4421 21.0345 25.5156 21.0118C25.589 20.9892 25.6628 20.9684 25.7371 20.9495C25.8113 20.9305 25.886 20.9133 25.9609 20.8982C26.0359 20.8829 26.1112 20.8696 26.1866 20.8582C26.2621 20.8468 26.3378 20.8372 26.4136 20.8295C26.4895 20.8219 26.5655 20.8161 26.6415 20.8123C26.7174 20.8084 26.7934 20.8066 26.8695 20.8066C26.9454 20.8066 27.0213 20.8084 27.0972 20.8123C27.173 20.8161 27.2486 20.8219 27.3239 20.8295C27.3993 20.8372 27.4745 20.8468 27.5493 20.8582C27.6242 20.8696 27.6985 20.8829 27.7727 20.8982C27.8468 20.9133 27.9204 20.9305 27.9936 20.9495C28.0668 20.9684 28.1394 20.9892 28.2115 21.0118C28.2834 21.0345 28.3549 21.059 28.4257 21.0852C28.4964 21.1116 28.5665 21.1396 28.6359 21.1693C28.7052 21.1993 28.7738 21.2308 28.8415 21.2642C28.9092 21.2975 28.9761 21.3326 29.042 21.3694C29.1079 21.4061 29.1729 21.4446 29.2368 21.4848C29.3009 21.5248 29.3639 21.5666 29.4258 21.6098C29.4877 21.6532 29.5485 21.6981 29.6082 21.7447C29.6679 21.791 29.7264 21.839 29.7838 21.8885C29.8409 21.938 29.897 21.989 29.9518 22.0413C30.0066 22.0937 30.06 22.1475 30.1121 22.2026C30.1644 22.2579 30.215 22.3143 30.2644 22.3721C30.3137 22.4299 30.3616 22.489 30.4081 22.5493C30.4545 22.6096 30.4995 22.6711 30.5429 22.7336C30.5864 22.7963 30.6283 22.8602 30.6685 22.9249C30.7089 22.9898 30.7476 23.0557 30.7848 23.1227C30.8219 23.1895 30.8573 23.2574 30.8911 23.3261C30.9249 23.395 30.9571 23.4647 30.9875 23.5352C31.018 23.6057 31.0466 23.677 31.0737 23.749C31.1006 23.8211 31.1258 23.8939 31.1493 23.9674C31.1727 24.0407 31.1944 24.1148 31.2143 24.1895C31.2342 24.2642 31.2522 24.3393 31.2685 24.415C31.2848 24.4907 31.2992 24.5667 31.3118 24.6433C31.3244 24.7197 31.3352 24.7966 31.3441 24.8737C31.3529 24.9509 31.36 25.0284 31.3651 25.106C31.3704 25.1836 31.3736 25.2613 31.3751 25.3392C31.3766 25.4171 31.3762 25.4951 31.3739 25.5732Z" fill="#00D8FF"/>
<mask id="mask0_752_1093" style="mask-type:luminance" maskUnits="userSpaceOnUse" x="0" y="2" width="54" height="47">
<path d="M1.38965 2.97058L53.3896 2.97058L52.0674 48.2963L0.067474 48.2963L1.38965 2.97058Z" fill="white"/>
</mask>
<g mask="url(#mask0_752_1093)">
<path d="M27.0133 15.8813C33.2478 15.8813 39.0127 16.7997 43.3347 18.3429C48.542 20.2023 51.6947 23.0207 51.6202 25.5728C51.5426 28.2321 48.027 31.2263 42.3207 33.148C38.0068 34.6009 32.3634 35.3592 26.4451 35.3592C20.3775 35.3592 14.6526 34.6474 10.3769 33.1322C4.96763 31.2145 1.76424 28.1816 1.84034 25.5728C1.91418 23.0414 5.0845 20.2447 10.3262 18.3881C14.7551 16.8195 20.717 15.8813 27.0128 15.8813L27.0133 15.8813Z" stroke="#00D8FF" stroke-width="3"/>
</g>
<mask id="mask1_752_1093" style="mask-type:luminance" maskUnits="userSpaceOnUse" x="0" y="0" width="54" height="51">
<path d="M1.45801 0.626099L53.458 0.626099L52 50.6077H2.05562e-05L1.45801 0.626099Z" fill="white"/>
</mask>
<g mask="url(#mask1_752_1093)">
<path d="M18.6527 20.7542C21.929 15.2104 25.7341 10.5193 29.3088 7.40667C33.6158 3.65699 37.6525 2.1884 39.7693 3.46319C41.9749 4.79176 42.6563 9.33648 41.2807 15.321C40.2417 19.8453 37.9158 25.2224 34.8057 30.4853C31.617 35.8809 28.0073 40.6347 24.4807 43.7179C20.0184 47.6199 15.7731 49.0321 13.6101 47.7287C11.5106 46.465 10.8147 42.3205 12.001 36.7803C13.0035 32.0989 15.3441 26.3533 18.6514 20.7552L18.6527 20.7542Z" stroke="#00D8FF" stroke-width="3"/>
<path d="M18.376 30.4992C15.4146 24.9617 13.4511 19.356 12.6991 14.7031C11.7942 9.09721 12.6747 4.81118 14.8637 3.53224C17.1447 2.19982 21.3417 3.74545 25.6741 7.80212C28.9498 10.8692 32.2707 15.4828 35.0822 20.7402C37.9649 26.1307 40.0841 31.5918 40.8363 36.1876C41.7883 42.0037 40.7509 46.4472 38.5133 47.7546C36.3421 49.0229 32.4758 47.6803 28.4189 44.0017C24.9912 40.8937 21.3669 36.0915 18.3757 30.4982L18.376 30.4992Z" stroke="#00D8FF" stroke-width="3"/>
</g>
</svg>
