<svg width="52" height="53" viewBox="0 0 52 53" fill="none" xmlns="http://www.w3.org/2000/svg">
<g clip-path="url(#clip0_752_1107)">
<g clip-path="url(#clip1_752_1107)">
<path d="M43.327 28.8988C41.8198 28.9008 40.3328 29.2458 38.9783 29.9077C38.5543 29.2033 38.2268 28.4449 38.0047 27.653C37.8771 27.0323 37.8476 26.3954 37.9173 25.7655C38.0638 25.0724 38.2539 24.3892 38.4864 23.7201C38.4778 23.6326 38.3818 23.2191 37.4168 23.2053C36.4518 23.1916 35.6204 23.3889 35.5313 23.6446C35.3637 24.1116 35.2291 24.5898 35.1285 25.0757C34.3298 27.0482 33.3466 28.9407 32.1922 30.7279C31.5454 29.6665 31.2794 28.416 31.438 27.1828C31.5845 26.4897 31.7746 25.8066 32.0071 25.1375C31.9985 25.05 31.9025 24.6364 30.9375 24.6227C29.9724 24.609 29.1411 24.8063 29.0519 25.062C28.9628 25.3176 28.8497 25.9199 28.6491 26.493C28.4486 27.0662 26.1071 32.3032 25.4934 33.6536C25.178 34.3399 24.9055 34.8993 24.7135 35.2768C24.7044 35.3014 24.6929 35.3249 24.6792 35.3472C24.5078 35.6715 24.417 35.8482 24.417 35.8482V35.8568C24.285 36.0936 24.1444 36.3133 24.0742 36.3133C23.9516 35.823 23.9575 35.3094 24.0913 34.8221C24.4341 33.005 25.274 30.1806 25.2655 30.0827C25.2655 30.0296 25.4232 29.5388 24.7221 29.2848C24.5595 29.2074 24.3769 29.1823 24.1995 29.213C24.022 29.2438 23.8585 29.3288 23.7313 29.4564C23.6696 29.4564 23.6268 29.6057 23.6268 29.6057C23.6268 29.6057 24.3896 26.4296 22.1715 26.4296C21.3077 26.6035 20.4874 26.9486 19.7589 27.4445C19.0303 27.9405 18.4082 28.5773 17.9291 29.3175C17.3326 29.6418 16.0624 30.335 14.7031 31.0814C14.1889 31.3714 13.6506 31.6614 13.1518 31.9394C13.1176 31.9051 13.0816 31.8604 13.0473 31.8261C10.3476 28.9468 5.38521 26.9152 5.59947 23.0629C5.67832 21.6593 6.15999 17.9735 15.1282 13.4967C22.5092 9.85545 28.3834 10.8644 29.3999 13.102C30.8552 16.2971 26.2528 22.229 18.6267 23.0887C17.783 23.26 16.9117 23.2393 16.0771 23.0282C15.2425 22.817 14.4659 22.4207 13.8049 21.8686C13.4021 21.4294 13.3404 21.4036 13.1913 21.4911C12.9462 21.6233 13.1038 22.0179 13.1913 22.2461C13.4822 22.7732 13.8757 23.2365 14.3485 23.6087C14.8213 23.981 15.3639 24.2546 15.9441 24.4134C18.9442 25.0623 22.0721 24.752 24.8866 23.5262C29.5147 21.7365 33.1144 16.7603 32.0585 12.5924C30.9974 8.3626 23.985 6.96755 17.348 9.33209C13.1908 10.7324 9.34965 12.9381 6.04343 15.8235C2.38723 19.2467 1.80957 22.2204 2.04612 23.4679C2.90318 27.8915 8.98998 30.7691 11.4257 32.9054C11.3023 32.9758 11.1892 33.0376 11.0932 33.089C9.87446 33.6948 5.22922 36.1262 4.06534 38.6967C2.75062 41.6137 4.27618 43.6986 5.28408 43.98C6.80279 44.3439 8.39712 44.224 9.84448 43.6371C11.2919 43.0502 12.52 42.0254 13.3575 40.706C14.0707 39.6116 14.5091 38.3609 14.6353 37.0603C14.7616 35.7598 14.572 34.448 14.0826 33.2366C14.0743 33.217 14.0627 33.199 14.0483 33.1834L15.0031 32.6223C15.6253 32.2534 16.239 31.9119 16.7652 31.6305C16.4083 32.6608 16.1989 33.7365 16.143 34.8256C16.0218 36.4947 16.5321 38.1485 17.5725 39.4585C17.7309 39.595 17.9146 39.6986 18.1133 39.7634C18.3119 39.8282 18.5213 39.8529 18.7296 39.836C19.758 39.836 20.2294 38.9781 20.7454 37.9588C21.3761 36.7131 21.9452 35.2648 21.9452 35.2648C21.9452 35.2648 21.2356 39.1788 23.164 39.1788C23.865 39.1788 24.5747 38.266 24.8918 37.8061V37.8147C24.8918 37.8147 24.9089 37.7889 24.9449 37.7272L25.0581 37.5436V37.5264C25.3392 37.0357 25.97 35.9203 26.9076 34.0688C28.1177 31.682 29.2833 28.698 29.2833 28.698C29.3958 29.3538 29.5509 30.0015 29.7479 30.637C30.0302 31.4073 30.3641 32.1577 30.7472 32.8831C30.4661 33.2778 30.2912 33.4974 30.2912 33.4974L30.2998 33.506C30.0718 33.8046 29.8267 34.1289 29.5542 34.4446C28.7433 35.3371 27.9909 36.2811 27.3018 37.2707C27.1994 37.437 27.1642 37.636 27.2034 37.8273C27.2426 38.0187 27.3532 38.1878 27.5127 38.3003C27.8735 38.4883 28.2848 38.5562 28.6868 38.4942C29.2927 38.4599 29.8884 38.3236 30.4489 38.091C30.9906 37.9001 31.5016 37.6313 31.9659 37.293C32.4446 36.9611 32.8298 36.5115 33.0847 35.9874C33.3396 35.4633 33.4554 34.8824 33.4212 34.3005C33.3673 33.5675 33.1803 32.8505 32.8693 32.1848C32.9567 32.0612 33.0407 31.9394 33.1229 31.8158C34.0975 30.3597 34.9758 28.8413 35.7524 27.2704C35.8648 27.9261 36.02 28.5739 36.2169 29.2093C36.4498 29.875 36.7364 30.5206 37.074 31.1398C35.9528 32.0032 35.0698 33.1382 34.5079 34.4378C33.956 36.0353 34.3845 36.7542 35.1936 36.9207C35.6363 36.9512 36.079 36.8605 36.474 36.6582C37.0549 36.467 37.6021 36.1856 38.0956 35.8242C38.6159 35.5168 39.0517 35.0847 39.3638 34.5668C39.6759 34.049 39.8544 33.4615 39.8834 32.8574C39.8445 32.2544 39.7085 31.6616 39.4806 31.102C40.96 30.5234 42.5641 30.3389 44.1361 30.5666C48.3083 31.0574 49.1327 33.6639 48.975 34.7621C48.9011 35.1514 48.7447 35.5203 48.5165 35.8441C48.2882 36.1679 47.9934 36.439 47.6517 36.6393C47.3621 36.8229 47.2661 36.8847 47.2918 37.0168C47.3261 37.2107 47.4632 37.2004 47.7117 37.1661C48.3405 36.9704 48.8953 36.5886 49.303 36.0709C49.7106 35.5532 49.9518 34.9239 49.9949 34.2662C50.1269 31.6923 47.6723 28.8696 43.3322 28.8953L43.327 28.8988ZM11.136 39.7571C9.75105 41.2671 7.82267 41.8368 6.98962 41.3546C6.09485 40.8399 6.44624 38.6092 8.14664 37.0099C9.15531 36.101 10.2455 35.2871 11.4035 34.5785C11.6057 34.4549 11.904 34.2799 12.2605 34.0637L12.3565 34.0105L12.5673 33.8784C12.8711 34.8973 12.8987 35.9787 12.6471 37.0118C12.3956 38.0449 11.8741 38.9924 11.136 39.7571ZM21.2167 32.8934C20.7351 34.0688 19.7272 37.0803 19.1135 36.9121C18.5873 36.7714 18.2565 34.4892 19.009 32.2345C19.3889 31.1491 19.9423 30.1327 20.6476 29.2248C21.4019 28.3823 22.2349 28.1009 22.4355 28.444C22.2525 29.9796 21.8417 31.4792 21.2167 32.8934ZM29.5353 36.8778C29.333 36.9825 29.1411 37.0494 29.0536 37.0013C28.9919 36.967 29.1411 36.8297 29.1411 36.8297C29.1411 36.8297 30.185 35.7058 30.5963 35.1979C30.8329 34.8993 31.1106 34.5493 31.4123 34.1529V34.2662C31.4123 35.608 30.1147 36.5123 29.537 36.8812L29.5353 36.8778ZM35.9529 35.4124C35.8038 35.3077 35.8295 34.956 36.33 33.8595C36.6781 33.1553 37.1643 32.5285 37.7596 32.0166C37.8509 32.2763 37.8984 32.5495 37.9002 32.8248C37.9069 33.4108 37.7197 33.9827 37.3678 34.451C37.0159 34.9194 36.519 35.2581 35.9547 35.4141L35.9529 35.4124Z" fill="#CD6799"/>
</g>
</g>
<defs>
<clipPath id="clip0_752_1107">
<rect width="52" height="52" fill="white" transform="translate(0 0.186157)"/>
</clipPath>
<clipPath id="clip1_752_1107">
<rect width="52" height="52" fill="white" transform="translate(0 0.186157)"/>
</clipPath>
</defs>
</svg>
